# xmcd CD database file generated by Grip 3.2.0
# 
# Track frame offsets:
#       182
#       6132
#       26772
#       46130
#       67270
#       85905
#       102407
#       125385
#       140227
#       155355
#       180297
#       202785
#       220045
#       241275
#       272212
#       295680
# 
# Disc length: 4434 seconds
# 
# Revision: 6
# Processed by: cddbd v1.5.2PL0 Copyright (c) Steve Scherf et al.
# Submitted via: Grip 3.2.0
# 
DISCID=e0115010
DTITLE=The Roots - Do You Want More?!!!??!
DYEAR=1994
DGENRE=Rap
TTITLE0=Intro-There's Something Goin' On
TTITLE1=Proceed
TTITLE2=Distortion To Static
TTITLE3=Mellow My Man
TTITLE4=I Remain Calm
TTITLE5=Datskat
TTITLE6=Lazy Afternoon
TTITLE7=? vs. Rahzel
TTITLE8=Do You Want More?!!!??!
TTITLE9=What Goes On Pt. 7
TTITLE10=Essaywhuman?!!!??!
TTITLE11=Swept Away
TTITLE12=You Ain't Fly
TTITLE13=Silent Treatment
TTITLE14=The Lesson Pt. 1
TTITLE15=The Unlocking
EXTD=0\n\n\nCopy YEAR: 1994
EXTT0=
EXTT1=
EXTT2=
EXTT3=
EXTT4=
EXTT5=
EXTT6=
EXTT7=
EXTT8=
EXTT9=
EXTT10=
EXTT11=
EXTT12=
EXTT13=
EXTT14=
EXTT15=
PLAYORDER=
